<svg width="67" height="36" viewBox="0 0 67 36" fill="none" xmlns="http://www.w3.org/2000/svg">
<path d="M0.906 17.073C1.898 16.9697 2.65233 16.67 3.169 16.174C3.70633 15.678 3.975 15.027 3.975 14.221C3.975 13.477 3.89233 12.113 3.727 10.129C3.541 8.269 3.448 6.781 3.448 5.665C3.448 4.19767 3.87167 3.05067 4.719 2.224C5.587 1.39733 6.72367 0.983998 8.129 0.983998H10.206V4.053H8.842C8.18067 4.053 7.68467 4.208 7.354 4.518C7.044 4.80733 6.889 5.28267 6.889 5.944C6.889 6.44 6.92 7.10133 6.982 7.928C7.044 8.75467 7.08533 9.34367 7.106 9.695C7.292 11.5963 7.385 13.1463 7.385 14.345C7.385 15.399 7.11633 16.2773 6.579 16.98C6.06233 17.6827 5.25633 18.1477 4.161 18.375V18.437C5.25633 18.6643 6.06233 19.1293 6.579 19.832C7.11633 20.5347 7.385 21.413 7.385 22.467C7.385 23.6657 7.292 25.2157 7.106 27.117C7.08533 27.4683 7.044 28.0573 6.982 28.884C6.92 29.7107 6.889 30.372 6.889 30.868C6.889 31.5293 7.044 32.0047 7.354 32.294C7.68467 32.604 8.18067 32.759 8.842 32.759H10.206V35.828H8.129C6.72367 35.828 5.587 35.4147 4.719 34.588C3.87167 33.7613 3.448 32.6143 3.448 31.147C3.448 30.031 3.541 28.543 3.727 26.683C3.89233 24.699 3.975 23.335 3.975 22.591C3.975 21.785 3.70633 21.134 3.169 20.638C2.65233 20.142 1.898 19.8423 0.906 19.739V17.073ZM27.0584 8.455V23.986C27.0584 25.908 26.4694 27.427 25.2914 28.543C24.134 29.659 22.6047 30.217 20.7034 30.217C18.802 30.217 17.2624 29.659 16.0844 28.543C14.927 27.427 14.3484 25.908 14.3484 23.986H17.9134C17.934 24.9367 18.1717 25.691 18.6264 26.249C19.1017 26.807 19.794 27.086 20.7034 27.086C21.6127 27.086 22.305 26.807 22.7804 26.249C23.2557 25.6703 23.4934 24.916 23.4934 23.986V8.455H27.0584ZM48.4004 14.655C47.8424 13.5803 47.0674 12.7743 46.0754 12.237C45.0834 11.679 43.9364 11.4 42.6344 11.4C41.2084 11.4 39.9374 11.7203 38.8214 12.361C37.7054 13.0017 36.8271 13.911 36.1864 15.089C35.5664 16.267 35.2564 17.631 35.2564 19.181C35.2564 20.731 35.5664 22.1053 36.1864 23.304C36.8271 24.482 37.7054 25.3913 38.8214 26.032C39.9374 26.6727 41.2084 26.993 42.6344 26.993C44.5564 26.993 46.1168 26.4557 47.3154 25.381C48.5141 24.3063 49.2478 22.8493 49.5164 21.01H41.4254V18.189H53.2984V20.948C53.0711 22.622 52.4718 24.1617 51.5004 25.567C50.5498 26.9723 49.2994 28.0987 47.7494 28.946C46.2201 29.7727 44.5151 30.186 42.6344 30.186C40.6091 30.186 38.7594 29.721 37.0854 28.791C35.4114 27.8403 34.0784 26.528 33.0864 24.854C32.1151 23.18 31.6294 21.289 31.6294 19.181C31.6294 17.073 32.1151 15.182 33.0864 13.508C34.0784 11.834 35.4114 10.532 37.0854 9.602C38.7801 8.65133 40.6298 8.176 42.6344 8.176C44.9284 8.176 46.9641 8.74433 48.7414 9.881C50.5394 10.997 51.8414 12.5883 52.6474 14.655H48.4004ZM66.549 19.739C65.557 19.8423 64.7923 20.142 64.255 20.638C63.7383 21.134 63.48 21.785 63.48 22.591C63.48 23.335 63.5627 24.699 63.728 26.683C63.914 28.543 64.007 30.031 64.007 31.147C64.007 32.6143 63.573 33.7613 62.705 34.588C61.8577 35.4147 60.7313 35.828 59.326 35.828H57.249V32.759H58.613C59.2743 32.759 59.76 32.604 60.07 32.294C60.4007 32.0047 60.566 31.5293 60.566 30.868C60.566 30.372 60.535 29.7107 60.473 28.884C60.411 28.0573 60.3697 27.4683 60.349 27.117C60.163 25.2157 60.07 23.6657 60.07 22.467C60.07 21.413 60.3283 20.5347 60.845 19.832C61.3823 19.1293 62.1987 18.6643 63.294 18.437V18.375C62.1987 18.1477 61.3823 17.6827 60.845 16.98C60.3283 16.2773 60.07 15.399 60.07 14.345C60.07 13.1463 60.163 11.5963 60.349 9.695C60.3697 9.34367 60.411 8.75467 60.473 7.928C60.535 7.10133 60.566 6.44 60.566 5.944C60.566 5.28267 60.4007 4.80733 60.07 4.518C59.76 4.208 59.2743 4.053 58.613 4.053H57.249V0.983998H59.326C60.7313 0.983998 61.8577 1.39733 62.705 2.224C63.573 3.05067 64.007 4.19767 64.007 5.665C64.007 6.781 63.914 8.269 63.728 10.129C63.5627 12.113 63.48 13.477 63.48 14.221C63.48 15.027 63.7383 15.678 64.255 16.174C64.7923 16.67 65.557 16.9697 66.549 17.073V19.739Z" fill="url(#paint0_linear_215_65)"/>
<defs>
<linearGradient id="paint0_linear_215_65" x1="-3" y1="-4" x2="11.2749" y2="54.6716" gradientUnits="userSpaceOnUse">
<stop stop-color="#11FF00"/>
<stop stop-color="#BEF3F5"/>
<stop offset="0.1219" stop-color="#11FF00"/>
<stop offset="0.2982" stop-color="#71F767"/>
<stop offset="0.5194" stop-color="#44F6A6"/>
<stop offset="0.9029" stop-color="#33BBCF"/>
</linearGradient>
</defs>
</svg>
