<svg width="51" height="28" viewBox="0 0 51 28" fill="none" xmlns="http://www.w3.org/2000/svg">
<path d="M0.024 12.992C0.792 12.912 1.376 12.68 1.776 12.296C2.192 11.912 2.4 11.408 2.4 10.784C2.4 10.208 2.336 9.152 2.208 7.616C2.064 6.176 1.992 5.024 1.992 4.16C1.992 3.024 2.32 2.136 2.976 1.496C3.648 0.855999 4.528 0.535999 5.616 0.535999H7.224V2.912H6.168C5.656 2.912 5.272 3.032 5.016 3.272C4.776 3.496 4.656 3.864 4.656 4.376C4.656 4.76 4.68 5.272 4.728 5.912C4.776 6.552 4.808 7.008 4.824 7.28C4.968 8.752 5.04 9.952 5.04 10.88C5.04 11.696 4.832 12.376 4.416 12.92C4.016 13.464 3.392 13.824 2.544 14V14.048C3.392 14.224 4.016 14.584 4.416 15.128C4.832 15.672 5.04 16.352 5.04 17.168C5.04 18.096 4.968 19.296 4.824 20.768C4.808 21.04 4.776 21.496 4.728 22.136C4.68 22.776 4.656 23.288 4.656 23.672C4.656 24.184 4.776 24.552 5.016 24.776C5.272 25.016 5.656 25.136 6.168 25.136H7.224V27.512H5.616C4.528 27.512 3.648 27.192 2.976 26.552C2.32 25.912 1.992 25.024 1.992 23.888C1.992 23.024 2.064 21.872 2.208 20.432C2.336 18.896 2.4 17.84 2.4 17.264C2.4 16.64 2.192 16.136 1.776 15.752C1.376 15.368 0.792 15.136 0.024 15.056V12.992ZM20.271 6.32V18.344C20.271 19.832 19.815 21.008 18.903 21.872C18.007 22.736 16.823 23.168 15.351 23.168C13.879 23.168 12.687 22.736 11.775 21.872C10.879 21.008 10.431 19.832 10.431 18.344H13.191C13.207 19.08 13.391 19.664 13.743 20.096C14.111 20.528 14.647 20.744 15.351 20.744C16.055 20.744 16.591 20.528 16.959 20.096C17.327 19.648 17.511 19.064 17.511 18.344V6.32H20.271ZM36.7939 11.12C36.3619 10.288 35.7619 9.664 34.9939 9.248C34.2259 8.816 33.3379 8.6 32.3299 8.6C31.2259 8.6 30.2419 8.848 29.3779 9.344C28.5139 9.84 27.8339 10.544 27.3379 11.456C26.8579 12.368 26.6179 13.424 26.6179 14.624C26.6179 15.824 26.8579 16.888 27.3379 17.816C27.8339 18.728 28.5139 19.432 29.3779 19.928C30.2419 20.424 31.2259 20.672 32.3299 20.672C33.8179 20.672 35.0259 20.256 35.9539 19.424C36.8819 18.592 37.4499 17.464 37.6579 16.04H31.3939V13.856H40.5859V15.992C40.4099 17.288 39.9459 18.48 39.1939 19.568C38.4579 20.656 37.4899 21.528 36.2899 22.184C35.1059 22.824 33.7859 23.144 32.3299 23.144C30.7619 23.144 29.3299 22.784 28.0339 22.064C26.7379 21.328 25.7059 20.312 24.9379 19.016C24.1859 17.72 23.8099 16.256 23.8099 14.624C23.8099 12.992 24.1859 11.528 24.9379 10.232C25.7059 8.936 26.7379 7.928 28.0339 7.208C29.3459 6.472 30.7779 6.104 32.3299 6.104C34.1059 6.104 35.6819 6.544 37.0579 7.424C38.4499 8.288 39.4579 9.52 40.0819 11.12H36.7939ZM50.8444 15.056C50.0764 15.136 49.4844 15.368 49.0684 15.752C48.6684 16.136 48.4684 16.64 48.4684 17.264C48.4684 17.84 48.5324 18.896 48.6604 20.432C48.8044 21.872 48.8764 23.024 48.8764 23.888C48.8764 25.024 48.5404 25.912 47.8684 26.552C47.2124 27.192 46.3404 27.512 45.2524 27.512H43.6444V25.136H44.7004C45.2124 25.136 45.5884 25.016 45.8284 24.776C46.0844 24.552 46.2124 24.184 46.2124 23.672C46.2124 23.288 46.1884 22.776 46.1404 22.136C46.0924 21.496 46.0604 21.04 46.0444 20.768C45.9004 19.296 45.8284 18.096 45.8284 17.168C45.8284 16.352 46.0284 15.672 46.4284 15.128C46.8444 14.584 47.4764 14.224 48.3244 14.048V14C47.4764 13.824 46.8444 13.464 46.4284 12.92C46.0284 12.376 45.8284 11.696 45.8284 10.88C45.8284 9.952 45.9004 8.752 46.0444 7.28C46.0604 7.008 46.0924 6.552 46.1404 5.912C46.1884 5.272 46.2124 4.76 46.2124 4.376C46.2124 3.864 46.0844 3.496 45.8284 3.272C45.5884 3.032 45.2124 2.912 44.7004 2.912H43.6444V0.535999H45.2524C46.3404 0.535999 47.2124 0.855999 47.8684 1.496C48.5404 2.136 48.8764 3.024 48.8764 4.16C48.8764 5.024 48.8044 6.176 48.6604 7.616C48.5324 9.152 48.4684 10.208 48.4684 10.784C48.4684 11.408 48.6684 11.912 49.0684 12.296C49.4844 12.68 50.0764 12.912 50.8444 12.992V15.056Z" fill="url(#paint0_linear_215_65)"/>
<defs>
<linearGradient id="paint0_linear_215_65" x1="-3" y1="-3" x2="7.99555" y2="42.193" gradientUnits="userSpaceOnUse">
<stop stop-color="#11FF00"/>
<stop stop-color="#BEF3F5"/>
<stop offset="0.1219" stop-color="#11FF00"/>
<stop offset="0.2982" stop-color="#71F767"/>
<stop offset="0.5194" stop-color="#44F6A6"/>
<stop offset="0.9029" stop-color="#33BBCF"/>
</linearGradient>
</defs>
</svg>
