<svg width="130" height="68" viewBox="0 0 130 68" fill="none" xmlns="http://www.w3.org/2000/svg">
<path d="M0.46 29.8C2.42 29.72 3.86 29.3 4.78 28.54C5.7 27.74 6.16 26.62 6.16 25.18C6.16 24.1 5.96 21.96 5.56 18.76C5.52 18.44 5.4 17.42 5.2 15.7C5 13.94 4.9 12.36 4.9 10.96C4.9 7.56 5.94 4.92 8.02 3.04C10.1 1.12 12.88 0.159998 16.36 0.159998H20.68V8.56H18.34C17.06 8.56 16.14 8.84 15.58 9.4C15.02 9.96 14.74 10.82 14.74 11.98C14.74 12.86 14.9 14.86 15.22 17.98C15.58 21.86 15.76 24.4 15.76 25.6C15.76 27.8 15.22 29.62 14.14 31.06C13.1 32.5 11.5 33.42 9.34 33.82V33.94C11.5 34.38 13.1 35.32 14.14 36.76C15.22 38.16 15.76 39.98 15.76 42.22C15.76 43.42 15.58 45.96 15.22 49.84C14.9 52.88 14.74 54.86 14.74 55.78C14.74 56.94 15.02 57.8 15.58 58.36C16.14 58.96 17.06 59.26 18.34 59.26H20.68V67.66H16.36C12.88 67.66 10.1 66.7 8.02 64.78C5.94 62.9 4.9 60.24 4.9 56.8C4.9 55.4 5 53.84 5.2 52.12C5.4 50.36 5.52 49.32 5.56 49C5.96 45.8 6.16 43.66 6.16 42.58C6.16 41.22 5.7 40.14 4.78 39.34C3.86 38.5 2.42 38.04 0.46 37.96V29.8ZM55.0614 12.88V41.56C55.0614 46 53.8014 49.42 51.2814 51.82C48.8014 54.22 45.4414 55.42 41.2014 55.42C36.7614 55.42 33.2014 54.16 30.5214 51.64C27.8414 49.12 26.5014 45.54 26.5014 40.9H36.7014C36.7014 42.66 37.0614 44 37.7814 44.92C38.5014 45.8 39.5414 46.24 40.9014 46.24C42.1414 46.24 43.1014 45.84 43.7814 45.04C44.4614 44.24 44.8014 43.08 44.8014 41.56V12.88H55.0614ZM91.3089 26.2C90.5489 24.8 89.4489 23.74 88.0089 23.02C86.6089 22.26 84.9489 21.88 83.0289 21.88C79.7089 21.88 77.0489 22.98 75.0489 25.18C73.0489 27.34 72.0489 30.24 72.0489 33.88C72.0489 37.76 73.0889 40.8 75.1689 43C77.2889 45.16 80.1889 46.24 83.8689 46.24C86.3889 46.24 88.5089 45.6 90.2289 44.32C91.9889 43.04 93.2689 41.2 94.0689 38.8H81.0489V31.24H103.369V40.78C102.609 43.34 101.309 45.72 99.4689 47.92C97.6689 50.12 95.3689 51.9 92.5689 53.26C89.7689 54.62 86.6089 55.3 83.0889 55.3C78.9289 55.3 75.2089 54.4 71.9289 52.6C68.6889 50.76 66.1489 48.22 64.3089 44.98C62.5089 41.74 61.6089 38.04 61.6089 33.88C61.6089 29.72 62.5089 26.02 64.3089 22.78C66.1489 19.5 68.6889 16.96 71.9289 15.16C75.1689 13.32 78.8689 12.4 83.0289 12.4C88.0689 12.4 92.3089 13.62 95.7489 16.06C99.2289 18.5 101.529 21.88 102.649 26.2H91.3089ZM129.812 37.96C127.852 38.04 126.412 38.5 125.492 39.34C124.572 40.14 124.112 41.22 124.112 42.58C124.112 43.66 124.312 45.8 124.712 49C124.752 49.32 124.872 50.36 125.072 52.12C125.272 53.84 125.372 55.4 125.372 56.8C125.372 60.24 124.332 62.9 122.252 64.78C120.172 66.7 117.392 67.66 113.912 67.66H109.592V59.26H111.932C113.212 59.26 114.132 58.96 114.692 58.36C115.252 57.8 115.532 56.94 115.532 55.78C115.532 54.86 115.372 52.88 115.052 49.84C114.692 45.96 114.512 43.42 114.512 42.22C114.512 39.98 115.032 38.16 116.072 36.76C117.152 35.32 118.772 34.38 120.932 33.94V33.82C118.772 33.42 117.152 32.5 116.072 31.06C115.032 29.62 114.512 27.8 114.512 25.6C114.512 24.4 114.692 21.86 115.052 17.98C115.372 14.86 115.532 12.86 115.532 11.98C115.532 10.82 115.252 9.96 114.692 9.4C114.132 8.84 113.212 8.56 111.932 8.56H109.592V0.159998H113.912C117.392 0.159998 120.172 1.12 122.252 3.04C124.332 4.92 125.372 7.56 125.372 10.96C125.372 12.36 125.272 13.94 125.072 15.7C124.872 17.42 124.752 18.44 124.712 18.76C124.312 21.96 124.112 24.1 124.112 25.18C124.112 26.62 124.572 27.74 125.492 28.54C126.412 29.3 127.852 29.72 129.812 29.8V37.96Z" fill="url(#paint0_linear_215_65)"/>
<defs>
<linearGradient id="paint0_linear_215_65" x1="-5" y1="-11" x2="22.3924" y2="101.586" gradientUnits="userSpaceOnUse">
<stop stop-color="#11FF00"/>
<stop stop-color="#BEF3F5"/>
<stop offset="0.1219" stop-color="#11FF00"/>
<stop offset="0.2982" stop-color="#71F767"/>
<stop offset="0.5194" stop-color="#44F6A6"/>
<stop offset="0.9029" stop-color="#33BBCF"/>
</linearGradient>
</defs>
</svg>
