<svg width="21" height="22" viewBox="0 0 21 22" fill="none" xmlns="http://www.w3.org/2000/svg">
<circle cx="10.5" cy="11" r="10.5" fill="white"/>
<line x1="3.45812" y1="4.33819" x2="13.0036" y2="16.7473" stroke="black" stroke-width="1.5"/>
<path d="M17.1818 4.31816L4.61115 18.0458" stroke="black" stroke-width="1.5"/>
<line x1="6.79139" y1="6.26226" x2="14.8338" y2="16.9349" stroke="white" stroke-width="1.5"/>
<line x1="7.55909" y1="5.78405" x2="15.5773" y2="16.475" stroke="white"/>
<line x1="4.77274" y1="5.95453" x2="9.54546" y2="5.95453" stroke="black" stroke-width="1.5"/>
<line x1="8.99091" y1="4.49547" x2="11.8545" y2="8.31365" stroke="white"/>
<line x1="8.51365" y1="4.49547" x2="11.3773" y2="8.31365" stroke="white"/>
<line x1="12.4091" y1="16.4545" x2="18.1364" y2="16.4545" stroke="black" stroke-width="1.5"/>
<line x1="12.8091" y1="10.2227" x2="17.9637" y2="17.0954" stroke="white"/>
<line x1="8.23635" y1="5.3" x2="17.4" y2="17.5182" stroke="black" stroke-width="1.5"/>
<line x1="2.85965" y1="5.01141" x2="18.1324" y2="5.01141" stroke="white"/>
<line x1="4.76874" y1="4.05688" x2="17.6551" y2="4.05688" stroke="white"/>
<line x1="3.81784" y1="17.6591" x2="18.1367" y2="17.6591" stroke="white"/>
<line x1="5.72726" y1="4.34088" x2="2.86363" y2="4.34088" stroke="white"/>
<line x1="17.629" y1="15.0719" x2="18.5836" y2="16.981" stroke="white"/>
<line x1="3.81818" y1="18.1136" x2="15.2727" y2="18.1136" stroke="white" stroke-width="2"/>
<line x1="17.9248" y1="17.0865" x2="18.3085" y2="16.8026" stroke="white"/>
</svg>
